<svg width="20" height="13" viewBox="0 0 20 13" fill="none" xmlns="http://www.w3.org/2000/svg">
<path d="M17.5 5V2.5H16.25V5H13.75V6.25H16.25V8.75H17.5V6.25H20V5H17.5ZM6.25 5V7.5H9.786C9.5266 8.23064 9.04751 8.86313 8.41443 9.31072C7.78136 9.75831 7.02532 9.99908 6.25 10C5.25584 9.99868 4.30279 9.60317 3.59981 8.90019C2.89684 8.19722 2.50132 7.24416 2.5 6.25C2.50132 5.25585 2.89684 4.30279 3.59981 3.59981C4.30279 2.89684 5.25584 2.50133 6.25 2.5C7.146 2.5 8.009 2.821 8.679 3.405L10.32 1.52C9.19135 0.538554 7.74569 -0.00134865 6.25 2.52998e-06C4.59297 0.0018553 3.00433 0.66093 1.83263 1.83263C0.660928 3.00433 0.00185277 4.59297 0 6.25C0.00185277 7.90704 0.660928 9.49567 1.83263 10.6674C3.00433 11.8391 4.59297 12.4982 6.25 12.5C7.90703 12.4982 9.49567 11.8391 10.6674 10.6674C11.8391 9.49567 12.4981 7.90704 12.5 6.25V5H6.25Z" fill="black"/>
</svg>
