<svg width="18" height="18" viewBox="0 0 18 18" fill="none" xmlns="http://www.w3.org/2000/svg">
<path d="M4 2C4 3.062 3.29 3.976 1.999 3.976C0.784 3.976 0 3.114 0 2.052C0 0.962 0.76 0 2 0C3.24 0 3.976 0.91 4 2ZM0 18V5H4V18H0Z" fill="black"/>
<path d="M6.00001 9.44394C6.00001 7.89894 5.94901 6.60794 5.89801 5.49294H9.49201L9.67001 7.21594H9.74601C10.252 6.40494 11.492 5.21594 13.568 5.21594C16.1 5.21594 18 6.91094 18 10.5579V17.9999H14V11.1389C14 9.54494 13.393 8.32894 12 8.32894C10.938 8.32894 10.406 9.18894 10.127 9.89794C10.025 10.1519 10 10.5059 10 10.8609V17.9999H6.00001V9.44394Z" fill="black"/>
</svg>
